<?xml version="1.0" encoding="UTF-8" standalone="no"?>
<!-- Uploaded to: SVG Repo, www.svgrepo.com, Generator: SVG Repo Mixer Tools -->

<svg
   width="800px"
   height="800px"
   viewBox="0 0 24 24"
   fill="none"
   version="1.1"
   id="svg1"
   sodipodi:docname="most_recent_folder_lock.svg"
   inkscape:version="1.3.2 (091e20e, 2023-11-25, custom)"
   xml:space="preserve"
   xmlns:inkscape="http://www.inkscape.org/namespaces/inkscape"
   xmlns:sodipodi="http://sodipodi.sourceforge.net/DTD/sodipodi-0.dtd"
   xmlns="http://www.w3.org/2000/svg"
   xmlns:svg="http://www.w3.org/2000/svg"><defs
     id="defs1" /><sodipodi:namedview
     id="namedview1"
     pagecolor="#ffffff"
     bordercolor="#000000"
     borderopacity="0.25"
     inkscape:showpageshadow="2"
     inkscape:pageopacity="0.0"
     inkscape:pagecheckerboard="0"
     inkscape:deskcolor="#d1d1d1"
     inkscape:zoom="0.644793"
     inkscape:cx="31.793149"
     inkscape:cy="469.14281"
     inkscape:window-width="2560"
     inkscape:window-height="1351"
     inkscape:window-x="-9"
     inkscape:window-y="-9"
     inkscape:window-maximized="1"
     inkscape:current-layer="svg1" /><path
     d="m 11.469237,9.4663699 v 3.1634921 m 0,3.163492 h 0.01057 M 11.535354,5.3145396 11.40312,5.1822213 C 11.038369,4.81746 10.855941,4.6350847 10.643143,4.5046644 10.454389,4.3890283 10.248656,4.3038144 10.033538,4.2521545 9.7907935,4.1938831 9.5328631,4.1938831 9.0170242,4.1938831 H 5.3531519 c -1.1811424,0 -1.7717242,0 -2.2228592,0.2298699 C 2.7334536,4.6259423 2.4108197,4.9485763 2.2086304,5.3454153 1.9787605,5.7965504 1.9787605,6.3871216 1.9787605,7.5682746 v 8.0141804 c 0,1.181142 0,1.771765 0.2298699,2.222879 0.2021893,0.396808 0.5248232,0.719485 0.9216623,0.921632 0.451135,0.22988 1.0417063,0.22988 2.2228592,0.22988 H 17.585321 c 1.181143,0 1.771766,0 2.222881,-0.22988 0.396807,-0.202147 0.719483,-0.524824 0.92163,-0.921632 0.229881,-0.451114 0.229881,-1.041737 0.229881,-2.222879 V 9.6772697 c 0,-1.1811429 0,-1.7717247 -0.229881,-2.2228598 C 20.527685,7.0575709 20.205009,6.734937 19.808202,6.5327476 19.357087,6.3028777 18.766464,6.3028777 17.585321,6.3028777 H 13.92147 c -0.515859,0 -0.77379,0 -1.016535,-0.058272 C 12.689817,6.1929467 12.484085,6.1077324 12.29533,5.9920963 12.082533,5.8616762 11.900105,5.6793007 11.535354,5.3145396 Z"
     stroke="currentColor"
     stroke-width="2.10899"
     stroke-linecap="round"
     stroke-linejoin="round"
     id="path1"
     style="fill:#fff618;fill-opacity:0.1414791" /><g
     style="fill:none;stroke:currentColor;stroke-width:2;stroke-linecap:round;stroke-linejoin:round"
     id="g1"
     transform="matrix(0.50372502,0,0,0.50372502,25.570098,6.0405736)" /><g
     id="g4"
     transform="matrix(0.98831247,0,0,1.1054211,-12.804419,2.3556079)"
     style="stroke-width:1;stroke-dasharray:none"><g
       id="g3"
       transform="matrix(0.99478818,0,0,1.0435909,0.00730703,-0.69159471)"
       style="stroke-width:3.04379;stroke-dasharray:none"><rect
         x="26.995174"
         y="11.995271"
         width="9.1754131"
         height="5.0444226"
         rx="1.0194902"
         ry="0.91716772"
         id="rect1-8"
         style="fill:none;stroke:#ffffff;stroke-width:2.95141;stroke-linecap:round;stroke-linejoin:round;stroke-dasharray:none" /><path
         d="m 29.088567,11.898687 v -1.812912 a 2.5416385,2.2661395 0 0 1 5.083277,0 v 1.812912"
         id="path1-5-6"
         style="fill:#dde9af;stroke:#ffffff;stroke-width:3.04379;stroke-linecap:round;stroke-linejoin:round;stroke-dasharray:none" /></g><rect
       x="26.939421"
       y="11.907946"
       width="9.1079187"
       height="5.2349052"
       rx="1.0119909"
       ry="0.951801"
       id="rect1"
       style="fill:#fff6d5;stroke:#ffca00;stroke-width:2.27319;stroke-linecap:square;stroke-linejoin:round;stroke-dasharray:none;paint-order:normal;stroke-opacity:1" /><path
       d="M 28.976477,10.958511 V 9.9845142 c 9.46e-4,-3.3100336 5.034529,-3.3100336 5.033583,0 v 1.0432328"
       id="path1-5"
       style="fill:#fff6d5;stroke:#ffca00;stroke-width:2.27319;stroke-linecap:round;stroke-linejoin:round;stroke-dasharray:none;stroke-opacity:1"
       sodipodi:nodetypes="cccc" /></g></svg>
